<svg width="48" height="51" viewBox="0 0 48 51" fill="none" xmlns="http://www.w3.org/2000/svg">
<g id="Group">
<path id="Vector" d="M45.2513 30.1323L45.3504 30.1819C47.655 31.4704 48.547 34.3697 47.3328 36.699C43.1202 44.7525 34.6455 50.2536 24.907 50.1793C11.3276 50.0801 0.201484 39.0283 0.00324541 25.4489C-0.219774 11.4235 11.0799 0 25.0805 0C32.9853 0 40.0475 3.66742 44.6318 9.39157L35.6615 14.2484C32.787 11.4483 28.7975 9.76327 24.4362 9.93673C16.4323 10.2589 9.98954 16.8751 9.89042 24.9038C9.7913 33.3785 16.6305 40.2673 25.0557 40.2673C30.9038 40.2673 35.9836 36.9716 38.5112 32.1147C39.7997 29.6863 42.8477 28.7942 45.2513 30.1323Z" fill="#5669FF"/>
<path id="Vector_2" d="M47.4072 13.6536C48.5223 15.8342 47.7293 18.5105 45.5735 19.6999L40.0723 22.7478L26.4434 30.3057C24.3123 31.4951 21.6361 30.9004 20.1989 28.918L20.1493 28.8437C18.4395 26.4896 19.1829 23.1443 21.76 21.7566L35.6863 14.2236L44.6566 9.3667C45.6974 10.7048 46.6142 12.142 47.4072 13.6536Z" fill="#00F8FF"/>
</g>
</svg>
